<?xml version="1.0" encoding="utf-8"?>
<!-- Generator: Adobe Illustrator 16.0.0, SVG Export Plug-In . SVG Version: 6.00 Build 0)  -->
<!DOCTYPE svg PUBLIC "-//W3C//DTD SVG 1.1//EN" "http://www.w3.org/Graphics/SVG/1.1/DTD/svg11.dtd" [
	<!ENTITY ns_extend "http://ns.adobe.com/Extensibility/1.0/">
	<!ENTITY ns_ai "http://ns.adobe.com/AdobeIllustrator/10.0/">
	<!ENTITY ns_graphs "http://ns.adobe.com/Graphs/1.0/">
	<!ENTITY ns_vars "http://ns.adobe.com/Variables/1.0/">
	<!ENTITY ns_imrep "http://ns.adobe.com/ImageReplacement/1.0/">
	<!ENTITY ns_sfw "http://ns.adobe.com/SaveForWeb/1.0/">
	<!ENTITY ns_custom "http://ns.adobe.com/GenericCustomNamespace/1.0/">
	<!ENTITY ns_adobe_xpath "http://ns.adobe.com/XPath/1.0/">
]>
<svg version="1.1" id="Layer_1" xmlns:x="&ns_extend;" xmlns:i="&ns_ai;" xmlns:graph="&ns_graphs;"
	 xmlns="http://www.w3.org/2000/svg" xmlns:xlink="http://www.w3.org/1999/xlink" x="0px" y="0px" width="72.518px"
	 height="60.856px" viewBox="0 0 72.518 60.856" enable-background="new 0 0 72.518 60.856" xml:space="preserve">
<metadata>
	<sfw  xmlns="&ns_sfw;">
		<slices></slices>
		<sliceSourceBounds  height="56.185" width="66.952" x="453.148" y="407.144" bottomLeftOrigin="true"></sliceSourceBounds>
	</sfw>
</metadata>
<g>
	<path fill="#1D1D1B" d="M28.895,19.611c0.179-1.717-1.068-3.251-2.783-3.431c-1.713-0.178-3.249,1.067-3.428,2.784
		c-0.178,1.713,1.068,3.249,2.782,3.427C27.181,22.57,28.717,21.324,28.895,19.611"/>
	<path fill="#1D1D1B" d="M40.124,19.955c0.178-1.716-1.068-3.251-2.783-3.43c-1.713-0.178-3.25,1.067-3.428,2.784
		c-0.178,1.713,1.068,3.249,2.781,3.427C38.409,22.914,39.946,21.668,40.124,19.955"/>
	<path fill="none" stroke="#4ABDEB" stroke-width="7" stroke-miterlimit="10" d="M63.018,4.63c0.504,4.276,0.779,4.988,0.203,9.255
		c-0.576,4.268-2.363,8.534-5.707,11.244c-2.16,1.749-4.83,2.752-7.525,3.422"/>
	<path fill="none" stroke="#4ABDEB" stroke-width="7" stroke-miterlimit="10" d="M66.352,2.964c-1.668,4.333-2.668,6-3,8"/>
	<path fill="none" stroke="#1D1D1B" stroke-width="7" stroke-miterlimit="10" d="M16.518,29.63c2.738,1.438,5.863,2.671,12.667,3
		c7.409,0.358,17.12-1.721,19.999-3"/>
	<path fill="none" stroke="#4ABDEB" stroke-width="7" stroke-miterlimit="10" d="M17.185,31.047
		c-6.615,0.949-11.349,10.66-11,17.333"/>
	<path fill="#1D1D1B" d="M16.968,11.25c3.432-3.221,8.32-4.831,14.666-4.831c6.485,0,11.554,1.539,15.194,4.618
		c3.643,3.078,5.463,7.979,5.463,14.702v32.153h-6.697V25.739c0-4.513-1.197-7.933-3.596-10.261
		c-2.395-2.327-5.852-3.489-10.364-3.489c-4.277,0-7.533,1.162-9.766,3.489c-2.232,2.328-3.349,5.748-3.349,10.261v32.153H11.82
		V25.739C11.82,19.298,13.536,14.468,16.968,11.25"/>
</g>
</svg>
