<svg xmlns="http://www.w3.org/2000/svg" xmlns:xlink="http://www.w3.org/1999/xlink" width="150" height="150">
  <defs>
    <path id="a" d="M150 148a2 2 0 0 1-2 2H2a2 2 0 0 1-2-2V2a2 2 0 0 1 2-2h146a2 2 0 0 1 2 2v146z"/>
  </defs>
  <clipPath id="b">
    <use xlink:href="#a" overflow="visible"/>
  </clipPath>
  <linearGradient id="c" gradientUnits="userSpaceOnUse" x1="102.645" y1="145.739" x2="39.888" y2="-14.851">
    <stop offset=".007" stop-color="#1589ce"/>
    <stop offset=".497" stop-color="#58b4d9"/>
    <stop offset=".996" stop-color="#b4e5fb"/>
  </linearGradient>
  <path clip-path="url(#b)" fill="url(#c)" d="M0 0h150v150H0z"/>
  <path fill="#FFF" d="M93.931 23.191H49.026c-.679 0-1.356.255-1.867.773a2.606 2.606 0 0 0-.774 1.866v39.494h8.172v8.178h-8.172v16.353h8.172v8.183l16.351-.002v-8.181h-8.174v-8.176h8.174v8.176h8.18v8.178H95.44V81.679h-8.178v-8.177h8.178v-8.176h8.175l.002-32.448-9.686-9.687zM79.087 73.502h-8.182v-8.178h8.182v8.178z"/>
  <path fill="#FFF" d="M95.441 73.502h8.175v8.177h-8.175z"/>
  <path fill="#B4E5FB" d="M103.615 32.873h-7.042a2.642 2.642 0 0 1-2.644-2.642v-7.044l9.686 9.686z"/>
  <path d="M70.911 73.502h8.174v8.177h-8.174zM95.44 89.859h8.175v8.178H95.44zm-.002-24.533h8.177v8.176h-8.177zm-40.88 8.176h8.176v8.176h-8.176zM46.383 89.86h8.175v8.177h-8.175z" fill="#1589CE"/>
  <path fill="#B4E5FB" d="M75.003 30.158c-10.434 0-19.535 5.672-24.41 14.095 4.875 8.423 13.977 14.094 24.41 14.094s19.535-5.671 24.407-14.094c-4.872-8.423-13.973-14.095-24.407-14.095z"/>
  <path fill="#FC4482" d="M82.798 52.05a10.993 10.993 0 0 1-7.797 3.227c-6.089 0-11.022-4.939-11.022-11.022 0-4.593 2.812-8.533 6.812-10.185l4.211 10.185 7.796 7.795z"/>
  <path fill="#1589CE" d="M86.025 44.252H75.001V33.23c6.091 0 11.024 4.937 11.024 11.022z"/>
  <path fill="#70C9E9" d="M86.025 44.252c0 3.046-1.231 5.798-3.228 7.796L75 44.252h11.025z"/>
  <path fill="#FFF" d="M75.001 33.23v11.024L70.79 34.069a10.896 10.896 0 0 1 4.211-.839z"/>
  <defs>
    <path id="d" d="M150 2.59A2.589 2.589 0 0 0 147.411 0H98.636a2.59 2.59 0 0 0-2.591 2.59v48.775a2.59 2.59 0 0 0 2.591 2.59h48.775a2.59 2.59 0 0 0 2.589-2.59V2.59z"/>
  </defs>
  <clipPath id="e">
    <use xlink:href="#d" overflow="visible"/>
  </clipPath>
  <g opacity=".25" clip-path="url(#e)">
    <path fill="#1589CE" d="M169.496 26.944c3.445-7.311 3.601-15.325 1.066-22.375l-1.98-5.51a9.715 9.715 0 0 0-5.021-5.523c-2.439-1.149-5.109-1.201-7.459-.356s-5.021.791-7.459-.356a9.72 9.72 0 0 1-5.023-5.525l-1.979-5.509a19.457 19.457 0 0 0-10.045-11.05 19.45 19.45 0 0 0-14.917-.712c-4.698 1.689-8.755 5.171-11.051 10.046s-2.399 10.218-.711 14.916l10.56 29.38c2.534 7.05 7.758 13.132 15.069 16.576a29.167 29.167 0 0 0 22.374 1.066c7.049-2.533 13.132-7.756 16.576-15.068zm-15.16-21.948a4.879 4.879 0 1 1 9.18-3.303 4.879 4.879 0 0 1-9.18 3.303z"/>
    <circle fill="#B4E5FB" cx="149.355" cy="32.097" r="4.878"/>
    <circle fill="#70C9E9" cx="133.074" cy="30.345" r="4.878"/>
    <circle fill="#FFF" cx="123.897" cy="16.647" r="4.878"/>
    <circle fill="#FFF" cx="118.172" cy=".718" r="4.879"/>
  </g>
  <g opacity=".25">
    <path fill="#B4E5FB" d="M21.156 66.156l.394 8.523 4.836-1.336-4.035-7.516zm12.016 39.484a.658.658 0 0 0 .081-.479l-6.518-30.55-4.835 1.334 10.085 29.565a.663.663 0 0 0 .316.369.652.652 0 0 0 .482.052.654.654 0 0 0 .389-.291z"/>
    <path fill="#1589CE" d="M26.383 73.345l.35 1.267-4.835 1.338-.35-1.266z"/>
    <path fill="#FFF" d="M22.294 67.948a3.499 3.499 0 0 1-4.43-3.462c.1-2.252 1.337-5.783.84-9.23a.082.082 0 0 1 .057-.101.081.081 0 0 1 .102.057c1.344 3.214 4.219 5.609 5.457 7.492a3.495 3.495 0 0 1-2.026 5.244z"/>
  </g>
</svg>
