<svg xmlns="http://www.w3.org/2000/svg" xmlns:xlink="http://www.w3.org/1999/xlink" width="150" height="150">
  <defs>
    <path id="a" d="M150 148a2 2 0 0 1-2 2H2a2 2 0 0 1-2-2V2a2 2 0 0 1 2-2h146a2 2 0 0 1 2 2v146z"/>
  </defs>
  <clipPath id="b">
    <use xlink:href="#a" overflow="visible"/>
  </clipPath>
  <linearGradient id="c" gradientUnits="userSpaceOnUse" x1="102.644" y1="145.74" x2="39.887" y2="-14.85">
    <stop offset=".007" stop-color="#1589ce"/>
    <stop offset=".497" stop-color="#58b4d9"/>
    <stop offset=".996" stop-color="#b4e5fb"/>
  </linearGradient>
  <path clip-path="url(#b)" fill="url(#c)" d="M0 0h150v150H0z"/>
  <path fill="#FFF" d="M50.06 99.844a2.824 2.824 0 0 1-2.01-.834 2.834 2.834 0 0 1-.834-2.012V22.049c0-.728.277-1.456.834-2.012a2.829 2.829 0 0 1 2.01-.834h49.879c.729 0 1.455.278 2.01.834s.836 1.284.836 2.012v74.949c0 .728-.281 1.455-.836 2.012s-1.281.834-2.01.834H50.06z"/>
  <path fill="#1589CE" d="M71.753 96.471a.795.795 0 0 1-.795-.796v-.195c0-.44.357-.798.795-.798h6.492c.438 0 .797.357.797.798v.195c0 .44-.359.796-.797.796h-6.492z"/>
  <g fill="#1589CE">
    <path d="M74.995 24.724a1.245 1.245 0 0 1-1.244-1.256c0-.685.553-1.251 1.244-1.251a1.254 1.254 0 0 1 0 2.507z"/>
    <path d="M74.999 23.903a.43.43 0 0 1-.426-.436c0-.233.188-.425.426-.425.24 0 .432.191.432.425a.433.433 0 0 1-.432.436z"/>
  </g>
  <path fill="#FFF" stroke="#1589CE" stroke-miterlimit="10" d="M50.833 29.5h50v64h-50z"/>
  <path fill="#1589CE" d="M60.997 56.884h14.605v2.194H60.997z"/>
  <path fill="#B4E5FB" d="M60.997 61.267h29.209v2.188H60.997zm0 4.382h29.209v2.19H60.997zm0 4.379h29.209v2.19H60.997z"/>
  <path fill="#8FDEF6" d="M50.565 35.287v6.014a2.443 2.443 0 1 0 4.886 0v-6.014h-4.886z"/>
  <path fill="#70C9E9" d="M55.452 35.287v6.014a2.443 2.443 0 1 0 4.886 0v-6.014h-4.886z"/>
  <path fill="#8FDEF6" d="M60.339 35.287v6.014a2.443 2.443 0 0 0 4.888 0v-6.014h-4.888z"/>
  <path fill="#70C9E9" d="M65.228 35.287v6.014a2.441 2.441 0 1 0 4.884 0v-6.014h-4.884z"/>
  <path fill="#8FDEF6" d="M70.112 35.287v6.014a2.442 2.442 0 1 0 4.886 0v-6.014h-4.886z"/>
  <path fill="#70C9E9" d="M74.999 35.287v6.014a2.442 2.442 0 1 0 4.886 0v-6.014h-4.886z"/>
  <path fill="#8FDEF6" d="M79.886 35.287v6.014a2.441 2.441 0 0 0 2.441 2.443 2.442 2.442 0 0 0 2.445-2.443v-6.014h-4.886z"/>
  <path fill="#70C9E9" d="M84.772 35.287v6.014a2.443 2.443 0 0 0 4.884 0v-6.014h-4.884zm9.774 0v6.014a2.442 2.442 0 1 0 4.886 0v-6.014h-4.886z"/>
  <path fill="#8FDEF6" d="M89.657 35.287v6.014a2.444 2.444 0 0 0 4.888 0v-6.014h-4.888z"/>
  <path fill="none" stroke="#FC4482" stroke-width="3" stroke-linecap="round" stroke-linejoin="round" stroke-miterlimit="10" d="M57.833 56v-4.5h8.5m0 28h-8.5V76m36-1v4.5h-8.5m0-28h8.5V55"/>
  <path fill="#1589CE" d="M55.161 31.01a1.39 1.39 0 0 1-1.389 1.39 1.39 1.39 0 0 1 0-2.78 1.39 1.39 0 0 1 1.389 1.39z"/>
  <path fill="#B4E5FB" d="M59.323 31.01a1.39 1.39 0 0 1-1.387 1.39 1.39 1.39 0 0 1 0-2.78 1.39 1.39 0 0 1 1.387 1.39z"/>
  <path fill="#70C9E9" d="M63.487 31.01A1.39 1.39 0 0 1 62.1 32.4a1.388 1.388 0 0 1-1.387-1.39c0-.765.619-1.39 1.387-1.39a1.39 1.39 0 0 1 1.387 1.39z"/>
  <defs>
    <path id="d" d="M150 2.59A2.589 2.589 0 0 0 147.411 0H98.636a2.59 2.59 0 0 0-2.591 2.59v48.775a2.59 2.59 0 0 0 2.591 2.59h48.775a2.59 2.59 0 0 0 2.589-2.59V2.59z"/>
  </defs>
  <clipPath id="e">
    <use xlink:href="#d" overflow="visible"/>
  </clipPath>
  <g opacity=".25" clip-path="url(#e)">
    <path fill="#1589CE" d="M132.48-46.106l74.986 74.987-39.945 39.946L92.534-6.161z"/>
    <path fill="#FFF" d="M98.665-8.702c-.447.447-.643 1.142-.481 1.985.161.845.647 1.672 1.304 2.329l49.006 49.005 35.295-35.293-49.007-49.008c-.656-.658-1.485-1.145-2.329-1.304-.842-.163-1.537.031-1.984.479L98.665-8.702z"/>
    <path fill="#70C9E9" d="M117.009 4.99l15.581-15.582 15.58 15.58-15.582 15.582z"/>
    <g fill="#FFF">
      <path d="M137.532 9.931a6.999 6.999 0 0 1-9.889 0 7.002 7.002 0 0 1-.002-9.891c2.729-2.727 7.164-2.729 9.893 0a.824.824 0 0 1-1.164 1.163 5.355 5.355 0 0 0-7.564 0 5.353 5.353 0 0 0 .001 7.564 5.354 5.354 0 0 0 8.95-2.396.827.827 0 0 1 1.006-.585.827.827 0 0 1 .585 1.009 6.962 6.962 0 0 1-1.816 3.136z"/>
      <path d="M135.354 7.752a3.913 3.913 0 0 1-5.526-.004 3.915 3.915 0 0 1-.004-5.526 3.918 3.918 0 0 1 5.531-.001 3.915 3.915 0 0 1-.001 5.531zm-4.365-4.365a2.263 2.263 0 1 0 3.2 3.202c.883-.883.883-2.32.001-3.203a2.266 2.266 0 0 0-3.201.001z"/>
      <path d="M138.627 4.479a2.344 2.344 0 0 1-1.671.69 2.344 2.344 0 0 1-1.674-.69l-1.092-1.093a.824.824 0 0 1 1.164-1.165l1.092 1.093a.691.691 0 0 0 .504.209.74.74 0 0 0 .729-.723.724.724 0 0 0-.215-.503l-1.092-1.093a.821.821 0 1 1 1.163-1.162l1.092 1.091c.446.447.694 1.041.696 1.668a2.38 2.38 0 0 1-.696 1.678z"/>
    </g>
    <path d="M113.089 1.07l27.149-27.15 1.73 1.73L114.82 2.8zm21.563 21.552L150.236 7.04l1.731 1.731-15.584 15.582zm3.774 3.788l15.585-15.58 1.73 1.732-15.584 15.58z" fill="#B4E5FB"/>
  </g>
  <g opacity=".25">
    <g fill="#B4E5FB">
      <path d="M29.914 105.404H15.397a2.194 2.194 0 0 1-2.194-2.195V82.074c0-1.212.982-2.195 2.194-2.195h14.517c1.211 0 2.194.983 2.194 2.195v21.135a2.195 2.195 0 0 1-2.194 2.195z"/>
      <path d="M18.266 80.978l4.389-4.39 4.39 4.39z"/>
    </g>
    <path d="M16.012 85.666H29.3v1.995H16.012zm0 3.987H29.3v1.991H16.012zm0 3.988H29.3v1.993H16.012zm0 3.984H29.3v1.992H16.012z" fill="#FFF"/>
  </g>
  <g opacity=".25">
    <circle fill="#1589CE" cx="23.073" cy="62.683" r="11.102"/>
    <path d="M18.425 59.084c.138 0 .249.043.339.129.09.085.136.193.136.323 0 .206-.132.378-.395.515-.622.329-1.078.648-1.367.957-.267.294-.4.511-.4.648 0 .13.102.209.31.237l.123.011.163.02c.446.062.807.266 1.081.612.275.347.412.77.412 1.271 0 .5-.171.939-.515 1.316-.385.418-.881.627-1.492.627-.589 0-1.09-.23-1.501-.689-.433-.466-.649-1.052-.649-1.76 0-.623.217-1.27.649-1.938a5.699 5.699 0 0 1 1.687-1.683c.602-.397 1.074-.596 1.419-.596zm4.917 0c.138 0 .251.043.339.129a.422.422 0 0 1 .135.323c0 .206-.132.378-.391.515-.626.329-1.08.648-1.369.957-.267.294-.399.511-.399.648 0 .13.102.209.308.237l.123.011.164.02c.446.062.807.266 1.081.612.273.347.411.77.411 1.271 0 .5-.172.939-.515 1.316-.384.418-.883.627-1.492.627-.591 0-1.088-.23-1.501-.689-.433-.466-.649-1.052-.649-1.76 0-.623.217-1.27.649-1.938a5.675 5.675 0 0 1 1.687-1.683c.604-.397 1.076-.596 1.419-.596zm5.86 7.539a.308.308 0 0 1-.227-.069.28.28 0 0 1-.101-.204c-.009-.134.067-.251.231-.352.391-.243.673-.47.845-.684.161-.202.239-.35.234-.438-.008-.085-.078-.131-.212-.14l-.081-.002-.106-.005a1.048 1.048 0 0 1-.73-.35 1.293 1.293 0 0 1-.324-.808c-.021-.325.07-.619.275-.878.231-.289.546-.447.943-.475.382-.027.718.101 1.006.381.303.284.467.656.499 1.116.027.404-.083.835-.336 1.289a3.693 3.693 0 0 1-1.021 1.168c-.373.284-.672.435-.895.451zm-3.198.218a.308.308 0 0 1-.225-.068.272.272 0 0 1-.1-.206c-.012-.133.065-.25.229-.351.391-.241.674-.47.846-.682.163-.205.24-.351.233-.441-.006-.084-.077-.132-.211-.139l-.082-.001-.105-.005a1.05 1.05 0 0 1-.731-.353 1.3 1.3 0 0 1-.324-.807 1.239 1.239 0 0 1 .276-.878c.231-.29.546-.447.942-.476.385-.023.72.103 1.009.381.299.284.467.657.497 1.116.027.405-.085.836-.334 1.29a3.745 3.745 0 0 1-1.022 1.168c-.374.287-.673.436-.898.452z" fill="#FFF"/>
  </g>
</svg>
