<svg xmlns="http://www.w3.org/2000/svg" xmlns:xlink="http://www.w3.org/1999/xlink" width="150" height="150"><defs><path id="a" d="M150 148a2 2 0 0 1-2 2H2a2 2 0 0 1-2-2V2a2 2 0 0 1 2-2h146a2 2 0 0 1 2 2v146z"/></defs><clipPath id="b"><use xlink:href="#a" overflow="visible"/></clipPath><linearGradient id="c" gradientUnits="userSpaceOnUse" x1="102.645" y1="145.74" x2="39.888" y2="-14.851"><stop offset=".007" stop-color="#1589ce"/><stop offset=".497" stop-color="#58b4d9"/><stop offset=".996" stop-color="#b4e5fb"/></linearGradient><path clip-path="url(#b)" fill="url(#c)" d="M0 0h150v150H0z"/><path fill="#B4E5FB" d="M120.54 51.207h-2.618a5.518 5.518 0 0 0-5.512 5.511v38.026a5 5 0 0 1-4.978 4.991l-1.97.056h-.015a4.959 4.959 0 0 1-3.524-1.456 4.964 4.964 0 0 1-1.468-3.536v-8.861h-.519v8.861c0 1.476.574 2.861 1.619 3.903a5.48 5.48 0 0 0 3.892 1.608h.017l1.969-.056a5.52 5.52 0 0 0 5.496-5.511V56.718a4.997 4.997 0 0 1 4.992-4.992h2.618a4.997 4.997 0 0 1 4.992 4.992v29.793h.519V56.718a5.515 5.515 0 0 0-5.51-5.511z"/><path fill="#B4E5FB" d="M127.828 72.878h-4.074a3.104 3.104 0 0 0-3.104 3.104v12.1a3.105 3.105 0 0 0 3.104 3.104h4.074a3.104 3.104 0 0 0 3.104-3.104v-12.1a3.103 3.103 0 0 0-3.104-3.104z"/><path fill="#FFF" d="M125.792 77.335a.701.701 0 0 1-.702-.702v-1.341a.701.701 0 1 1 1.402 0v1.341a.701.701 0 0 1-.7.702zm-23.228 20.316c0 .669-.521 1.211-1.162 1.211H46.685c-.641 0-1.161-.542-1.161-1.211V81.929c0-.668.521-1.209 1.161-1.209h54.718c.642 0 1.162.541 1.162 1.209v15.722z"/><path fill="#70C9E9" d="M77.619 95.865c0 .855-.492 1.549-1.097 1.549H58.975c-.604 0-1.097-.693-1.097-1.549 0-.854.492-1.548 1.097-1.548h17.548c.604 0 1.096.694 1.096 1.548zM51.348 84.992c0 .538-.465.975-1.036.975h-.777c-.572 0-1.036-.437-1.036-.975v-.732c0-.537.464-.974 1.036-.974h.777c.571 0 1.036.437 1.036.974v.732zm4.015.04c0 .538-.464.976-1.037.976h-.776c-.572 0-1.037-.438-1.037-.976v-.731c0-.538.465-.975 1.037-.975h.776c.573 0 1.037.437 1.037.975v.731zm3.887 0c0 .538-.465.976-1.037.976h-.778c-.572 0-1.035-.438-1.035-.976v-.731c0-.538.463-.975 1.035-.975h.778c.572 0 1.037.437 1.037.975v.731zm3.986.021c0 .538-.465.975-1.037.975h-.777c-.572 0-1.035-.437-1.035-.975v-.73c0-.539.463-.975 1.035-.975h.777c.572 0 1.037.436 1.037.975v.73zm4.015.04c0 .538-.465.976-1.036.976h-.777c-.572 0-1.036-.438-1.036-.976v-.73c0-.539.464-.976 1.036-.976h.777c.571 0 1.036.437 1.036.976v.73zm3.886 0c0 .538-.465.976-1.037.976h-.776c-.572 0-1.036-.438-1.036-.976v-.73c0-.539.464-.976 1.036-.976h.776c.572 0 1.037.437 1.037.976v.73zm-19.875 3.189c0 .538-.464.975-1.036.975h-.777c-.572 0-1.036-.437-1.036-.975v-.731c0-.539.464-.975 1.036-.975h.777c.572 0 1.036.436 1.036.975v.731zm4.015.04c0 .538-.465.975-1.037.975h-.776c-.572 0-1.036-.437-1.036-.975v-.731c0-.539.464-.975 1.036-.975h.776c.572 0 1.037.436 1.037.975v.731zm3.885 0c0 .538-.464.975-1.036.975h-.776c-.572 0-1.036-.437-1.036-.975v-.731c0-.539.464-.975 1.036-.975h.776c.572 0 1.036.436 1.036.975v.731zm3.986.021c0 .538-.464.975-1.036.975h-.776c-.572 0-1.036-.437-1.036-.975v-.731c0-.539.464-.975 1.036-.975h.776c.572 0 1.036.436 1.036.975v.731zm4.016.04c0 .538-.464.976-1.036.976h-.777c-.572 0-1.036-.438-1.036-.976v-.731c0-.538.464-.975 1.036-.975h.777c.572 0 1.036.437 1.036.975v.731zm3.887 0c0 .538-.464.976-1.036.976h-.777c-.572 0-1.035-.438-1.035-.976v-.731c0-.538.463-.975 1.035-.975h.777c.572 0 1.036.437 1.036.975v.731zm-19.857 3.236c0 .54-.465.976-1.036.976h-.778c-.572 0-1.036-.436-1.036-.976v-.73c0-.538.464-.975 1.036-.975h.778c.571 0 1.036.437 1.036.975v.73zm4.015.041c0 .539-.465.975-1.037.975h-.776c-.572 0-1.036-.436-1.036-.975v-.73c0-.538.464-.975 1.036-.975h.776c.572 0 1.037.437 1.037.975v.73zm3.886 0c0 .539-.465.975-1.036.975h-.777c-.572 0-1.036-.436-1.036-.975v-.73c0-.538.464-.975 1.036-.975h.777c.571 0 1.036.437 1.036.975v.73zm3.986.022c0 .538-.464.974-1.037.974h-.776c-.572 0-1.036-.436-1.036-.974v-.732c0-.538.464-.975 1.036-.975h.776c.573 0 1.037.437 1.037.975v.732zm4.017.04c0 .538-.465.976-1.037.976h-.776c-.573 0-1.037-.438-1.037-.976v-.732c0-.538.464-.975 1.037-.975h.776c.572 0 1.037.437 1.037.975v.732zm3.885 0c0 .538-.465.976-1.037.976h-.776c-.573 0-1.037-.438-1.037-.976v-.732c0-.538.464-.975 1.037-.975h.776c.572 0 1.037.437 1.037.975v.732zm4.246-6.73c0 .538-.464.974-1.036.974h-.776c-.572 0-1.037-.436-1.037-.974v-.732c0-.537.465-.975 1.037-.975h.776c.572 0 1.036.438 1.036.975v.732zm4.015.04c0 .538-.464.976-1.035.976h-.778c-.572 0-1.036-.438-1.036-.976v-.731c0-.538.464-.976 1.036-.976h.778c.571 0 1.035.438 1.035.976v.731zm3.886 0c0 .538-.463.976-1.035.976h-.777c-.572 0-1.036-.438-1.036-.976v-.731c0-.538.464-.976 1.036-.976h.777c.572 0 1.035.438 1.035.976v.731zm-7.876 3.44c0 .538-.465.975-1.037.975h-.777c-.573 0-1.036-.437-1.036-.975v-.73c0-.539.463-.976 1.036-.976h.776c.572 0 1.037.437 1.037.976v.73zm4.014.04c0 .538-.464.975-1.036.975h-.776c-.572 0-1.036-.437-1.036-.975v-.732c0-.538.464-.974 1.036-.974h.776c.572 0 1.036.436 1.036.974v.732zm3.886 0c0 .538-.464.975-1.036.975h-.777c-.572 0-1.036-.437-1.036-.975v-.732c0-.538.464-.974 1.036-.974h.777c.572 0 1.036.436 1.036.974v.732zm-7.952 3.298c0 .538-.464.975-1.036.975h-.777c-.573 0-1.037-.437-1.037-.975v-.73c0-.538.464-.976 1.037-.976h.777c.572 0 1.036.438 1.036.976v.73zm4.015.041c0 .539-.464.975-1.036.975h-.776c-.572 0-1.037-.436-1.037-.975v-.731c0-.538.465-.975 1.037-.975h.776c.572 0 1.036.437 1.036.975v.731zm3.886 0c0 .539-.464.975-1.036.975h-.777c-.571 0-1.036-.436-1.036-.975v-.731c0-.538.465-.975 1.036-.975h.777c.572 0 1.036.437 1.036.975v.731zm9.112-6.837a.986.986 0 0 1-.998.975h-.748a.987.987 0 0 1-.998-.975v-.731c0-.538.447-.974.998-.974h.748c.552 0 .998.436.998.974v.731zm3.866.041a.986.986 0 0 1-.998.975h-.747a.987.987 0 0 1-.999-.975v-.73c0-.539.447-.975.999-.975h.747c.552 0 .998.436.998.975v.73zm3.741 0a.987.987 0 0 1-.997.975h-.749a.987.987 0 0 1-.997-.975v-.73c0-.539.447-.975.997-.975h.749c.55 0 .997.436.997.975v.73zm-7.561 3.249a.986.986 0 0 1-.998.975h-.748a.986.986 0 0 1-.998-.975v-.73c0-.539.446-.975.998-.975h.748c.552 0 .998.436.998.975v.73zm3.866.041a.987.987 0 0 1-.997.975h-.749a.987.987 0 0 1-.998-.975v-.73c0-.54.447-.976.998-.976h.749c.55 0 .997.436.997.976v.73zm3.741 0a.986.986 0 0 1-.998.975h-.747a.986.986 0 0 1-.998-.975v-.73c0-.54.446-.976.998-.976h.747c.552 0 .998.436.998.976v.73zm-7.577 3.297a.985.985 0 0 1-.996.975h-.749a.986.986 0 0 1-.998-.975v-.732c0-.538.447-.975.998-.975h.749c.55 0 .996.437.996.975v.732zm3.867.041a.986.986 0 0 1-.998.975h-.749a.986.986 0 0 1-.997-.975v-.731c0-.538.447-.975.997-.975h.749c.551 0 .998.437.998.975v.731zm3.742 0a.986.986 0 0 1-.998.975h-.749a.985.985 0 0 1-.997-.975v-.731c0-.538.445-.975.997-.975h.749c.551 0 .998.437.998.975v.731z"/><path fill="#FC4482" d="M87.295 89.995c0 .641-.52 1.161-1.161 1.161h-.87a1.162 1.162 0 0 1-1.162-1.161v-3.709c0-.642.521-1.163 1.162-1.163h.87c.642 0 1.161.521 1.161 1.163v3.709z"/><path fill="#FFF" d="M100.197 71.859c0 .879-.713 1.593-1.593 1.593H49.228c-.88 0-1.594-.714-1.594-1.593V26.313c0-.881.714-1.593 1.594-1.593h49.377c.88 0 1.593.712 1.593 1.593v45.546z"/><path fill="#FC4482" d="M81.62 43.486H96.5v25.799H81.62z"/><path fill="#B4E5FB" d="M52.828 29.089h10.353v3.451H52.828zm11.681 0h31.062v3.451H64.509zm-11.593 4.512h14.513v3.452H52.916zm15.178.045h27.389v3.397H68.094zm-15 6.992h27.167v1.503H53.094zm-.045 2.848h27.168v1.505H53.049zm.089 3.037h27.169v1.504H53.138zm.033 3.037h27.168v1.504H53.171zm-.044 3.036h27.167V54.1H53.127zm.089 3.037h27.166v1.504H53.216zm0 3.037h27.166v1.504H53.216zm0 3.037h27.166v1.504H53.216zm0 3.036h27.166v1.504H53.216zm0 3.037h27.166v1.505H53.216z"/><path fill="#FFF" stroke="#FFF" stroke-miterlimit="10" d="M99.652 74.968h-51.4c-2.009 0-3.642-1.089-3.642-2.426V25.409c0-1.337 1.633-2.426 3.642-2.426h51.4c2.009 0 3.643 1.088 3.643 2.426v47.133c0 1.337-1.634 2.426-3.643 2.426zm-51.4-49.78c-.182 0-.332.1-.332.221v47.133c0 .122.15.221.332.221h51.4c.184 0 .331-.099.331-.221V25.409c0-.121-.147-.221-.331-.221h-51.4z"/><path fill="none" stroke="#1589CE" stroke-miterlimit="10" d="M48.252 25.188c-.182 0-.332.1-.332.221v47.133c0 .122.15.221.332.221h51.4c.184 0 .331-.099.331-.221V25.409c0-.121-.147-.221-.331-.221h-51.4z"/><defs><path id="d" d="M150 2.59A2.589 2.589 0 0 0 147.411 0H98.636a2.59 2.59 0 0 0-2.591 2.59v48.775a2.59 2.59 0 0 0 2.591 2.59h48.775a2.59 2.59 0 0 0 2.589-2.59V2.59z"/></defs><clipPath id="e"><use xlink:href="#d" overflow="visible"/></clipPath><g opacity=".25" clip-path="url(#e)"><path fill="#1589CE" d="M164.915-67.184c-1.06-1.01-2.439-1.696-3.881-1.818-1.441-.129-2.672.336-3.495 1.184L96.553-5.258l58.132 55.214 60.982-62.563c.826-.846 1.248-2.082 1.065-3.495-.179-1.416-.927-2.752-1.989-3.759l-49.828-47.323z"/><path fill="#FFF" d="M153.242 27.41L119.916-4.607l46.583-48.487 33.327 32.019z"/><path fill="#B4E5FB" d="M166.811-46.78l26.69 25.647a.249.249 0 0 1 .008.355l-40.217 41.856a.25.25 0 0 1-.356.005l-26.69-25.645a.25.25 0 0 1-.009-.356l40.217-41.855a.253.253 0 0 1 .357-.007z"/><path fill="none" stroke="#FFF" stroke-miterlimit="10" d="M165.708-35.867l16.934 16.271c.064.062.061.168-.01.239l-28.357 29.512c-.067.072-.172.078-.238.018L137.104-6.1c-.064-.062-.06-.167.008-.238l28.357-29.511c.067-.071.173-.081.239-.018z"/><path fill="#70C9E9" d="M134.735 13.314c-2.021-1.943-5.246-1.89-7.191.137a5.09 5.09 0 0 0 .146 7.19 5.09 5.09 0 0 0 7.191-.139 5.086 5.086 0 0 0-.146-7.188zm14.747 18.01l-3.203 3.33-1.997-1.923 3.203-3.329zm-3.584-3.446l-3.202 3.332-2-1.922 3.202-3.332zm-3.587-3.447l-3.201 3.336-2.002-1.922 3.2-3.335zM125.322 8.105l-3.202 3.332-2-1.921 3.202-3.333zm-3.587-3.445l-3.202 3.335-1.998-1.919 3.202-3.334zm-3.581-3.44l-3.201 3.332-2-1.922 3.201-3.332z"/></g><g opacity=".25"><path fill="#B4E5FB" d="M10.854 86.809c0-3.329 1.4-4.732 4.73-4.732h12.03c3.324 0 4.73 1.403 4.73 4.732v12.034c0 3.329-1.406 4.731-4.73 4.731h-12.03c-3.272 0-4.73-1.402-4.73-4.731V86.809z"/><g fill="#1589CE"><path d="M22.021 97.651l3.708-2.521.37-.251v-4.441l-1.082-.736-2.996-2.041c-.203-.139-.37-.051-.37.196v9.598c0 .247.167.335.37.196zm5.597-2.771h.905a.6.6 0 0 0 .597-.597v-3.248a.6.6 0 0 0-.597-.597h-1.504v4.441h.599zm-9.625 1.437a.55.55 0 0 0 .783 0 .55.55 0 0 0 0-.78c-.766-.766-1.188-1.783-1.188-2.865s.423-2.101 1.188-2.866a.553.553 0 1 0-.784-.782 5.135 5.135 0 0 0-1.51 3.648 5.134 5.134 0 0 0 1.511 3.645z"/><path d="M16.386 97.926a.553.553 0 0 0 .782-.781 6.332 6.332 0 0 1 0-8.946.553.553 0 1 0-.783-.782c-2.896 2.896-2.896 7.611.001 10.509zm3.15-3.151a.551.551 0 0 0 .782 0 .555.555 0 0 0 0-.782 1.853 1.853 0 0 1-.549-1.321c0-.501.194-.97.549-1.322a.555.555 0 0 0 0-.782.56.56 0 0 0-.783 0 2.956 2.956 0 0 0-.872 2.104 2.96 2.96 0 0 0 .873 2.103z"/></g></g></svg>