<?xml version="1.0" encoding="utf-8"?>
<!-- Generator: Adobe Illustrator 16.0.4, SVG Export Plug-In . SVG Version: 6.00 Build 0)  -->
<!DOCTYPE svg PUBLIC "-//W3C//DTD SVG 1.1//EN" "http://www.w3.org/Graphics/SVG/1.1/DTD/svg11.dtd">
<svg version="1.1" id="Layer_1" xmlns="http://www.w3.org/2000/svg" xmlns:xlink="http://www.w3.org/1999/xlink" x="0px" y="0px"
	 width="47.686px" height="38.126px" viewBox="-44.542 -10.429 47.686 38.126"
	 enable-background="new -44.542 -10.429 47.686 38.126" xml:space="preserve">
<path fill="none" d="M-44.542-10.429h17.289V6.86h-17.289V-10.429z"/>
<path fill="#7D7D7D" d="M-35.897-10.331c-4.648,0-8.414,3.765-8.414,8.413c0,4.646,3.766,8.414,8.414,8.414
	c4.647,0,8.414-3.769,8.414-8.414C-27.483-6.565-31.25-10.331-35.897-10.331z M-34.917-2.895H-31v1.957h-3.917h-1.959h-3.917v-1.957
	h3.917"/>
<path fill="#7D7D7D" d="M1.009-3.697h-27.336c0.107,0.579,0.18,1.17,0.18,1.779c0,5.383-4.364,9.749-9.749,9.749
	c-1.273,0-2.481-0.261-3.596-0.705v18.436c0,1.181,0.957,2.136,2.136,2.136H1.009c1.181,0,2.136-0.955,2.136-2.136V-1.561
	C3.145-2.74,2.189-3.697,1.009-3.697z M-22.856,23.461l-3.661-6.265l-1.766-2.651c-0.31,0.117-0.535,0.233-0.674,0.351
	c-0.737,0.597-1.104,1.596-1.104,3v5.565h-1.93v-4.869c0-1.698,0.251-2.956,0.755-3.777c0.201-0.334,0.483-0.645,0.843-0.938
	c0.36-0.289,0.792-0.521,1.295-0.69l-2.882-4.718h2.185l3.44,5.799l1.941,3.01c0.394-0.231,0.688-0.471,0.878-0.722
	c0.189-0.246,0.348-0.582,0.476-1.01c0.128-0.425,0.192-0.93,0.192-1.51V8.468h1.929v4.869c0,0.637-0.028,1.186-0.082,1.646
	c-0.055,0.461-0.167,0.946-0.336,1.458c-0.35,1.036-1.089,1.779-2.221,2.219l2.895,4.801H-22.856z M-6.117,23.461l-4.994-8.545
	l-2.409-3.616c-0.423,0.16-0.73,0.318-0.92,0.476c-1.003,0.815-1.506,2.179-1.506,4.091v7.594h-2.632v-6.645
	c0-2.313,0.343-4.03,1.03-5.151c0.275-0.455,0.659-0.88,1.149-1.276c0.493-0.396,1.081-0.71,1.769-0.943l-3.932-6.437h2.981
	l4.691,7.911l2.647,4.106c0.538-0.316,0.937-0.645,1.197-0.982c0.259-0.34,0.476-0.799,0.648-1.38
	c0.175-0.581,0.263-1.269,0.263-2.062V3.009h2.632v6.642c0,0.868-0.038,1.614-0.113,2.243c-0.073,0.629-0.227,1.292-0.458,1.989
	c-0.476,1.418-1.485,2.426-3.029,3.028l3.949,6.549H-6.117z"/>
</svg>
