<svg xmlns="http://www.w3.org/2000/svg" xmlns:xlink="http://www.w3.org/1999/xlink" width="150" height="150">
  <defs>
    <path id="a" d="M150 148a2 2 0 0 1-2 2H2a2 2 0 0 1-2-2V2a2 2 0 0 1 2-2h146a2 2 0 0 1 2 2v146z"/>
  </defs>
  <clipPath id="b">
    <use xlink:href="#a" overflow="visible"/>
  </clipPath>
  <linearGradient id="c" gradientUnits="userSpaceOnUse" x1="102.644" y1="145.74" x2="39.887" y2="-14.851">
    <stop offset=".007" stop-color="#1589ce"/>
    <stop offset=".497" stop-color="#58b4d9"/>
    <stop offset=".996" stop-color="#b4e5fb"/>
  </linearGradient>
  <path clip-path="url(#b)" fill="url(#c)" d="M0 0h150v150H0z"/>
  <path fill="#FFF" d="M105.45 31.437V97.07a2.772 2.772 0 0 1-2.775 2.773H48.132a2.77 2.77 0 0 1-2.772-2.773V24.04c0-.709.27-1.419.811-1.96a2.766 2.766 0 0 1 1.961-.812H95.28l10.17 10.169z"/>
  <path fill="#B4E5FB" d="M105.45 31.437h-7.396a2.761 2.761 0 0 1-1.963-.813 2.764 2.764 0 0 1-.811-1.961v-7.395l10.17 10.169zM55.528 43.876H95.28v3.111H55.528zm0 6.22H95.28v3.111H55.528z"/>
  <path fill="#1589CE" d="M55.528 31.437h19.877v3.11H55.528z"/>
  <path fill="#B4E5FB" d="M55.528 37.656H95.28v3.11H55.528zm0 49.76H95.28v3.111H55.528zm0-6.22H95.28v3.11H55.528zm0-6.22H95.28v3.111H55.528zm0-6.219H95.28v3.109H55.528zm0-6.221H95.28v3.11H55.528zm0-6.221H95.28v3.112H55.528z"/>
  <path fill="#1589CE" d="M90.022 74.136h3.547v3.951h-3.547z"/>
  <path fill="#1589CE" d="M91.794 37.656c-10.311 0-18.66 8.353-18.66 18.657 0 10.311 8.35 18.662 18.66 18.662 10.305 0 18.66-8.352 18.66-18.662 0-10.304-8.355-18.657-18.66-18.657z"/>
  <path fill="#58B4D9" d="M91.792 71.245c-8.242 0-14.93-6.682-14.93-14.932 0-8.245 6.688-14.927 14.93-14.927 8.244 0 14.934 6.682 14.934 14.927 0 8.25-6.69 14.932-14.934 14.932z"/>
  <path fill="#FC4482" d="M91.792 68.267c-6.596 0-11.949-5.35-11.949-11.953 0-6.599 5.354-11.948 11.949-11.948 6.6 0 11.955 5.35 11.955 11.948 0 6.603-5.355 11.953-11.955 11.953z"/>
  <path fill="#1589CE" d="M95.28 79.765V96.36a3.482 3.482 0 0 1-3.484 3.484 3.484 3.484 0 0 1-3.488-3.484V79.765h6.972z"/>
  <path fill="#B4E5FB" d="M95.28 79.762h-6.973v-.429a1.247 1.247 0 0 1 1.242-1.246h4.49c.314 0 .633.121.875.365.244.242.365.562.365.881v.429z"/>
  <defs>
    <path id="d" d="M150 36.263a2 2 0 0 1-2 2h-34.263a2 2 0 0 1-2-2V2a2 2 0 0 1 2-2H148a2 2 0 0 1 2 2v34.263z"/>
  </defs>
  <clipPath id="e">
    <use xlink:href="#d" overflow="visible"/>
  </clipPath>
  <g opacity=".25" clip-path="url(#e)">
    <circle fill="#1589CE" cx="141.978" cy="9.916" r="24.804"/>
    <path fill="#FFF" d="M123.005 27.675a2.823 2.823 0 0 0 1.979.896 2.824 2.824 0 0 0 2.029-.764l5.173-4.842-3.873-4.139-5.173 4.842a2.825 2.825 0 0 0-.897 1.976 2.818 2.818 0 0 0 .762 2.031z"/>
    <path fill="#D9D8D7" d="M131.671 23.449l-3.877-4.138-1.418 1.329a18.12 18.12 0 0 0 1.771 2.224 18.08 18.08 0 0 0 2.103 1.916l1.421-1.331z"/>
    <path fill="#FFF" d="M129.56 21.541c-6.417-6.856-6.062-17.621.798-24.042 6.856-6.419 17.617-6.062 24.035.794 6.422 6.859 6.066 17.621-.791 24.04-6.859 6.42-17.623 6.065-24.042-.792z"/>
    <circle fill="#B4E5FB" cx="141.978" cy="9.916" r="13.39"/>
    <path fill="#1DAAF1" d="M148.52 3.792c4.539 4.85 4.762 12.165.857 17.269a13.535 13.535 0 0 0 1.752-1.369c5.398-5.053 5.679-13.526.624-18.926-5.051-5.398-13.524-5.678-18.924-.625a13.183 13.183 0 0 0-1.481 1.66c5.35-3.562 12.634-2.855 17.172 1.991z"/>
  </g>
  <g opacity=".3">
    <path fill="#B4E5FB" d="M15.13 71.27l4.211-.958 6.879 30.208-4.211.955z"/>
    <path fill="#FFF" d="M23.788 105.505l2.573-.59.315 1.407a.698.698 0 0 1-.09.541.739.739 0 0 1-.449.319l-1.171.262a.693.693 0 0 1-.542-.093.685.685 0 0 1-.316-.448l-.32-1.398z"/>
    <path fill="#1589CE" d="M22.808 104.987a.712.712 0 0 0 .32.448.734.734 0 0 0 .543.093l2.805-.641a.718.718 0 0 0 .545-.859l-.801-3.509-4.211.955.799 3.513zm-.799-3.512l-.214-.933a.806.806 0 0 1-.958-.6l-2.22-9.747-.935.214 2.22 9.744c.104.458.376.849.779 1.1.398.249.87.329 1.328.222z"/>
    <path fill="#FFF" d="M16.766 66.468l-.587-1.038a.164.164 0 0 0-.183-.079.171.171 0 0 0-.134.151l-.078 1.192.982-.226z"/>
    <path fill="#1589CE" d="M15.435 66.771l1.684-.381 2.222 3.922-4.211.958z"/>
  </g>
</svg>
